<svg width="70" height="44" viewBox="0 0 70 44" fill="none" xmlns="http://www.w3.org/2000/svg">
<path d="M4.81988 23.1414V27.4642H3.76689V25.6846H2.12892V27.4642H1.07593V23.1414H2.12892V24.8348H3.76689V23.1414H4.81988Z" fill="black"/>
<path d="M11.781 26.7006H10.1676L9.90898 27.4642H8.80673L10.3708 23.1414H11.5901L13.1542 27.4642H12.0396L11.781 26.7006ZM11.51 25.8878L10.9743 24.3053L10.4447 25.8878H11.51Z" fill="black"/>
<path d="M16.9616 25.2967C16.9616 24.8697 17.0539 24.49 17.2387 24.1575C17.4234 23.8208 17.68 23.5602 18.0084 23.3754C18.3409 23.1866 18.7165 23.0922 19.1353 23.0922C19.6484 23.0922 20.0877 23.2276 20.453 23.4986C20.8184 23.7695 21.0627 24.139 21.1858 24.607H20.0282C19.9419 24.4264 19.8188 24.2888 19.6587 24.1944C19.5027 24.1 19.3241 24.0528 19.123 24.0528C18.7986 24.0528 18.5359 24.1657 18.3348 24.3915C18.1336 24.6173 18.033 24.919 18.033 25.2967C18.033 25.6743 18.1336 25.9761 18.3348 26.2019C18.5359 26.4277 18.7986 26.5405 19.123 26.5405C19.3241 26.5405 19.5027 26.4933 19.6587 26.3989C19.8188 26.3045 19.9419 26.167 20.0282 25.9863H21.1858C21.0627 26.4543 20.8184 26.8238 20.453 27.0947C20.0877 27.3616 19.6484 27.495 19.1353 27.495C18.7165 27.495 18.3409 27.4026 18.0084 27.2179C17.68 27.0291 17.4234 26.7684 17.2387 26.4359C17.0539 26.1033 16.9616 25.7236 16.9616 25.2967Z" fill="black"/>
<path d="M27.8468 27.4642L26.3936 25.5553V27.4642H25.3406V23.1414H26.3936V25.038L27.8345 23.1414H29.0723L27.3973 25.2597L29.1338 27.4642H27.8468Z" fill="black"/>
<path d="M35.8352 26.7006H34.2218L33.9632 27.4642H32.861L34.425 23.1414H35.6443L37.2084 27.4642H36.0938L35.8352 26.7006ZM35.5642 25.8878L35.0285 24.3053L34.4989 25.8878H35.5642Z" fill="black"/>
<path d="M44.3041 23.1414V23.985H43.1587V27.4642H42.1057V23.985H40.9604V23.1414H44.3041Z" fill="black"/>
<path d="M52.0864 23.1414V27.4642H51.0334V25.6846H49.3955V27.4642H48.3425V23.1414H49.3955V24.8348H51.0334V23.1414H52.0864Z" fill="black"/>
<path d="M58.4009 27.5073C57.9945 27.5073 57.6209 27.4129 57.2802 27.2241C56.9436 27.0352 56.6747 26.7725 56.4735 26.4359C56.2765 26.0951 56.178 25.7133 56.178 25.2905C56.178 24.8677 56.2765 24.4879 56.4735 24.1513C56.6747 23.8147 56.9436 23.5519 57.2802 23.3631C57.6209 23.1743 57.9945 23.0798 58.4009 23.0798C58.8074 23.0798 59.1789 23.1743 59.5155 23.3631C59.8562 23.5519 60.1231 23.8147 60.316 24.1513C60.5131 24.4879 60.6116 24.8677 60.6116 25.2905C60.6116 25.7133 60.5131 26.0951 60.316 26.4359C60.119 26.7725 59.8521 27.0352 59.5155 27.2241C59.1789 27.4129 58.8074 27.5073 58.4009 27.5073ZM58.4009 26.5467C58.7458 26.5467 59.0208 26.4318 59.2261 26.2019C59.4354 25.972 59.5401 25.6682 59.5401 25.2905C59.5401 24.9087 59.4354 24.6049 59.2261 24.3791C59.0208 24.1493 58.7458 24.0343 58.4009 24.0343C58.052 24.0343 57.7728 24.1472 57.5635 24.373C57.3582 24.5988 57.2556 24.9046 57.2556 25.2905C57.2556 25.6723 57.3582 25.9781 57.5635 26.208C57.7728 26.4338 58.052 26.5467 58.4009 26.5467Z" fill="black"/>
<path d="M68.5745 27.4642H67.5215L65.7603 24.7979V27.4642H64.7074V23.1414H65.7603L67.5215 25.8201V23.1414H68.5745V27.4642Z" fill="black"/>
<path d="M8.21133 36.0031C8.00333 35.6199 7.70228 35.3298 7.30818 35.1328C6.92503 34.9248 6.47072 34.8208 5.94525 34.8208C5.03663 34.8208 4.30864 35.1218 3.76128 35.7239C3.21392 36.3151 2.94024 37.1087 2.94024 38.1049C2.94024 39.1668 3.22486 39.9988 3.79412 40.6009C4.37432 41.192 5.168 41.4876 6.17514 41.4876C6.86482 41.4876 7.44502 41.3125 7.91575 40.9622C8.39743 40.6118 8.74774 40.1083 8.96669 39.4514H5.40336V37.3824H11.5119V39.9933C11.3039 40.6939 10.9481 41.3453 10.4446 41.9474C9.95194 42.5495 9.32247 43.0367 8.55617 43.4089C7.78986 43.7811 6.92503 43.9672 5.96167 43.9672C4.82316 43.9672 3.80507 43.7209 2.90739 43.2282C2.02067 42.7247 1.32552 42.0295 0.821947 41.1428C0.329322 40.2561 0.0830078 39.2434 0.0830078 38.1049C0.0830078 36.9664 0.329322 35.9538 0.821947 35.0671C1.32552 34.1694 2.02067 33.4742 2.90739 32.9816C3.79412 32.478 4.80674 32.2263 5.94525 32.2263C7.3246 32.2263 8.48501 32.5602 9.42647 33.2279C10.3789 33.8957 11.0083 34.8208 11.3149 36.0031H8.21133Z" fill="black"/>
<path d="M17.1889 41.7175H20.8672V43.8851H14.3809V32.3576H17.1889V41.7175Z" fill="black"/>
<path d="M28.9719 44C27.8881 44 26.8919 43.7482 25.9833 43.2447C25.0856 42.7411 24.3686 42.0405 23.8322 41.1428C23.3067 40.2342 23.044 39.2161 23.044 38.0885C23.044 36.9609 23.3067 35.9483 23.8322 35.0506C24.3686 34.153 25.0856 33.4524 25.9833 32.9488C26.8919 32.4452 27.8881 32.1934 28.9719 32.1934C30.0557 32.1934 31.0464 32.4452 31.9441 32.9488C32.8527 33.4524 33.5643 34.153 34.0788 35.0506C34.6043 35.9483 34.867 36.9609 34.867 38.0885C34.867 39.2161 34.6043 40.2342 34.0788 41.1428C33.5533 42.0405 32.8418 42.7411 31.9441 43.2447C31.0464 43.7482 30.0557 44 28.9719 44ZM28.9719 41.4384C29.8915 41.4384 30.6249 41.1318 31.1723 40.5188C31.7306 39.9057 32.0098 39.0957 32.0098 38.0885C32.0098 37.0704 31.7306 36.2603 31.1723 35.6582C30.6249 35.0452 29.8915 34.7387 28.9719 34.7387C28.0414 34.7387 27.297 35.0397 26.7387 35.6418C26.1913 36.2439 25.9176 37.0595 25.9176 38.0885C25.9176 39.1066 26.1913 39.9222 26.7387 40.5352C27.297 41.1373 28.0414 41.4384 28.9719 41.4384Z" fill="black"/>
<path d="M44.7217 37.9736C45.3895 38.1159 45.9259 38.4498 46.3309 38.9752C46.736 39.4898 46.9385 40.0809 46.9385 40.7487C46.9385 41.712 46.5991 42.4783 45.9204 43.0476C45.2526 43.6059 44.3166 43.8851 43.1124 43.8851H37.7428V32.3576H42.9318C44.1032 32.3576 45.0173 32.6258 45.6741 33.1622C46.3419 33.6987 46.6758 34.4267 46.6758 35.3462C46.6758 36.025 46.4951 36.5887 46.1339 37.0376C45.7836 37.4864 45.3128 37.7984 44.7217 37.9736ZM40.5508 37.0211H42.3899C42.8497 37.0211 43.2 36.9226 43.4409 36.7256C43.6926 36.5176 43.8185 36.2165 43.8185 35.8224C43.8185 35.4283 43.6926 35.1273 43.4409 34.9193C43.2 34.7113 42.8497 34.6073 42.3899 34.6073H40.5508V37.0211ZM42.6198 41.619C43.0905 41.619 43.4518 41.515 43.7036 41.307C43.9663 41.088 44.0977 40.776 44.0977 40.371C44.0977 39.966 43.9608 39.6485 43.6872 39.4186C43.4244 39.1887 43.0577 39.0738 42.587 39.0738H40.5508V41.619H42.6198Z" fill="black"/>
<path d="M57.0567 41.8489H52.7544L52.0647 43.8851H49.1254L53.2963 32.3576H56.5476L60.7185 43.8851H57.7464L57.0567 41.8489ZM56.3342 39.6813L54.9056 35.4612L53.4934 39.6813H56.3342Z" fill="black"/>
<path d="M66.1096 41.7175H69.7878V43.8851H63.3016V32.3576H66.1096V41.7175Z" fill="black"/>
<mask id="mask0" mask-type="alpha" maskUnits="userSpaceOnUse" x="27" y="0" width="16" height="16">
<path d="M42.4198 7.96445C42.4198 12.1589 39.0195 15.5591 34.8251 15.5591C30.6307 15.5591 27.2305 12.1589 27.2305 7.96445C27.2305 3.77005 30.6307 0.369812 34.8251 0.369812C39.0195 0.369812 42.4198 3.77005 42.4198 7.96445Z" fill="#C4C4C4"/>
</mask>
<g mask="url(#mask0)">
<path d="M40.3602 12.8559C40.3602 17.7612 36.3836 21.7378 31.4783 21.7378C26.573 21.7378 22.5964 17.7612 22.5964 12.8559C22.5964 7.95059 26.573 3.97404 31.4783 3.97404C36.3836 3.97404 40.3602 7.95059 40.3602 12.8559Z" fill="#F81B6A" fill-opacity="0.4"/>
<path d="M48.8558 8.47935C48.8558 12.9581 45.225 16.5889 40.7463 16.5889C36.2675 16.5889 32.6367 12.9581 32.6367 8.47935C32.6367 4.00057 36.2675 0.369812 40.7463 0.369812C45.225 0.369812 48.8558 4.00057 48.8558 8.47935Z" fill="#1BB5F8" fill-opacity="0.4"/>
<path d="M45.7664 3.58789C45.7664 6.92919 43.0578 9.63786 39.7165 9.63786C36.3752 9.63786 33.6665 6.92919 33.6665 3.58789C33.6665 0.246582 36.3752 -2.46208 39.7165 -2.46208C43.0578 -2.46208 45.7664 0.246582 45.7664 3.58789Z" fill="#3A1BF8" fill-opacity="0.4"/>
<path d="M36.2411 4.10276C36.2411 7.44407 33.5324 10.1527 30.1911 10.1527C26.8498 10.1527 24.1411 7.44407 24.1411 4.10276C24.1411 0.761459 26.8498 -1.9472 30.1911 -1.9472C33.5324 -1.9472 36.2411 0.761459 36.2411 4.10276Z" fill="#855EC5" fill-opacity="0.4"/>
</g>
</svg>
